<svg width="18" height="22" viewBox="0 0 18 22" fill="none" xmlns="http://www.w3.org/2000/svg">
<g clip-path="url(#clip0_452_36757)">
<path d="M8.04444 2.35438L1.50121 5.59253C1.13734 5.77263 1.14111 6.39077 1.50727 6.56435L8.07787 9.68065C8.65523 9.95448 9.29815 9.95448 9.87541 9.68065L16.4461 6.56435C16.8122 6.39077 16.816 5.77263 16.4521 5.59253L9.90894 2.35438C9.31194 2.05896 8.64134 2.05896 8.04444 2.35438Z" fill="#FFBF00"/>
<path d="M9.56055 11.3808V19.1657C9.56055 19.536 9.87273 19.7895 10.1605 19.6531L17.4822 16.2542C17.6493 16.1749 17.759 15.9818 17.759 15.7668V7.98184C17.759 7.61155 17.4468 7.35801 17.159 7.49445L9.83732 10.8934C9.67026 10.9726 9.56055 11.1658 9.56055 11.3808Z" fill="#26B5F8"/>
<path d="M7.85127 11.7846L5.67836 13.0394L5.45773 13.1669L0.870857 15.7955C0.580097 15.9632 0.208984 15.7098 0.208984 15.3235V8.01669C0.208984 7.87692 0.268902 7.75626 0.349255 7.66538C0.382785 7.62516 0.42078 7.59206 0.460262 7.56584C0.569879 7.48718 0.726221 7.46618 0.859151 7.52906L7.81476 10.8251C8.16831 10.9929 8.19609 11.5854 7.85127 11.7846Z" fill="#ED3049"/>
<path d="M7.85162 11.7846L5.67871 13.0394L0.349609 7.66538C0.383139 7.62516 0.421134 7.59206 0.460616 7.56584C0.570233 7.48718 0.726575 7.46618 0.859505 7.52906L7.81511 10.8251C8.16867 10.9929 8.19645 11.5854 7.85162 11.7846Z" fill="black" fill-opacity="0.25"/>
</g>
<defs>
<clipPath id="clip0_452_36757">
<rect width="17.5587" height="21" fill="white" transform="translate(0.208984 0.449219)"/>
</clipPath>
</defs>
</svg>
