<svg width="340" height="160" viewBox="0 0 340 160" fill="none" xmlns="http://www.w3.org/2000/svg">
<circle cx="170" cy="79.998" r="37.5156" stroke="#1F213D" stroke-width="2" stroke-linecap="round" stroke-linejoin="round" stroke-dasharray="12 12"/>
<path d="M170.002 63.3291C175.118 63.3291 179.265 67.4759 179.265 72.5913C179.265 77.7067 175.118 81.8535 170.002 81.8535C164.887 81.8535 160.74 77.7067 160.74 72.5913C160.74 67.4759 164.887 63.3291 170.002 63.3291" stroke="#1F213D" stroke-width="2" stroke-linecap="round" stroke-linejoin="round"/>
<path fill-rule="evenodd" clip-rule="evenodd" d="M186.673 98.6424C177.465 107.851 162.535 107.851 153.326 98.6424C153.813 97.4242 154.565 96.3293 155.527 95.4369C157.153 93.9271 159.29 93.0874 161.509 93.0859H178.495C180.713 93.0872 182.848 93.927 184.472 95.4369C185.437 96.3274 186.189 97.4228 186.673 98.6424Z" stroke="#1F213D" stroke-width="2" stroke-linecap="round" stroke-linejoin="round"/>
<circle cx="197" cy="52" r="13" fill="#D9D9D9"/>
<circle cx="197" cy="52" r="13" fill="#7DCE88"/>
<path d="M193 52.6887L195.889 55.5776L201.667 49.7998" stroke="white" stroke-width="2.16667" stroke-linecap="round" stroke-linejoin="round"/>
</svg>
