<svg width="50" height="50" viewBox="0 0 50 50" fill="none" xmlns="http://www.w3.org/2000/svg">
<rect x="1" y="1" width="48" height="48" rx="17" stroke="#4A6BE2" stroke-width="2"/>
<path fill-rule="evenodd" clip-rule="evenodd" d="M21.7736 31.7162V29.9487H23.9836L25.8598 28.0724L28.4498 29.1724C29.3886 29.5712 30.4748 29.3599 31.1948 28.6387L34.8736 24.9599C35.5948 24.2387 35.8048 23.1524 35.4073 22.2149L33.5298 17.7949C33.2773 17.1987 32.8023 16.7249 32.2061 16.4712L27.7861 14.5937C26.8473 14.1949 25.7623 14.4062 25.0411 15.1274L21.3623 18.8062C20.6423 19.5262 20.4311 20.6124 20.8298 21.5512L21.9011 24.0749L14.3711 31.6049V35.5824H18.3486L20.0061 33.9249V31.7149H21.7736V31.7162Z" stroke="#4A6BE2" stroke-width="1.875" stroke-linecap="round" stroke-linejoin="round"/>
<path d="M27.9708 21.1179C27.672 21.1192 27.4295 21.3617 27.4308 21.6604C27.4308 21.9592 27.6745 22.2017 27.9733 22.2004C28.272 22.2004 28.5145 21.9579 28.5145 21.6592C28.5145 21.3604 28.272 21.1179 27.9733 21.1179" stroke="#4A6BE2" stroke-width="1.875" stroke-linecap="round" stroke-linejoin="round"/>
</svg>
