<svg width="340" height="214" viewBox="0 0 340 214" fill="none" xmlns="http://www.w3.org/2000/svg">
<circle cx="49.6239" cy="107.015" r="25.5106" stroke="#1F213D" stroke-width="2" stroke-linecap="round" stroke-linejoin="round"/>
<path d="M49.6264 95.6797C53.1049 95.6797 55.9247 98.4995 55.9247 101.978C55.9247 105.456 53.1049 108.276 49.6264 108.276C46.148 108.276 43.3281 105.456 43.3281 101.978C43.3281 98.4995 46.148 95.6797 49.6264 95.6797" stroke="#1F213D" stroke-width="2" stroke-linecap="round" stroke-linejoin="round"/>
<path fill-rule="evenodd" clip-rule="evenodd" d="M60.9613 119.692C54.6993 125.954 44.5471 125.954 38.2852 119.692C38.6165 118.864 39.1277 118.12 39.7818 117.513C40.8876 116.486 42.3404 115.915 43.8493 115.914H55.4C56.908 115.915 58.36 116.486 59.4646 117.513C60.1203 118.118 60.6317 118.863 60.9613 119.692Z" stroke="#1F213D" stroke-width="2" stroke-linecap="round" stroke-linejoin="round"/>
<rect x="129.625" y="27.0156" width="2" height="160" fill="url(#paint0_linear_452_36368)"/>
<path opacity="0.5" d="M176.67 38.1794H170.82L169.56 40.9844H168.405L173.205 30.4844H174.3L179.1 40.9844H177.93L176.67 38.1794ZM176.265 37.2794L173.745 31.6394L171.225 37.2794H176.265ZM184.694 40.5044C184.494 40.6844 184.244 40.8244 183.944 40.9244C183.654 41.0144 183.349 41.0594 183.029 41.0594C182.289 41.0594 181.719 40.8594 181.319 40.4594C180.919 40.0594 180.719 39.4944 180.719 38.7644V33.9944H179.309V33.0944H180.719V31.3694H181.784V33.0944H184.184V33.9944H181.784V38.7044C181.784 39.1744 181.899 39.5344 182.129 39.7844C182.369 40.0244 182.709 40.1444 183.149 40.1444C183.369 40.1444 183.579 40.1094 183.779 40.0394C183.989 39.9694 184.169 39.8694 184.319 39.7394L184.694 40.5044ZM190.652 33.0344C191.642 33.0344 192.427 33.3244 193.007 33.9044C193.597 34.4744 193.892 35.3094 193.892 36.4094V40.9844H192.827V36.5144C192.827 35.6944 192.622 35.0694 192.212 34.6394C191.802 34.2094 191.217 33.9944 190.457 33.9944C189.607 33.9944 188.932 34.2494 188.432 34.7594C187.942 35.2594 187.697 35.9544 187.697 36.8444V40.9844H186.632V29.8544H187.697V34.4744C187.987 34.0144 188.387 33.6594 188.897 33.4094C189.407 33.1594 189.992 33.0344 190.652 33.0344ZM196.784 29.8544H197.849V40.9844H196.784V29.8544ZM207.682 37.3694H201.082C201.142 38.1894 201.457 38.8544 202.027 39.3644C202.597 39.8644 203.317 40.1144 204.187 40.1144C204.677 40.1144 205.127 40.0294 205.537 39.8594C205.947 39.6794 206.302 39.4194 206.602 39.0794L207.202 39.7694C206.852 40.1894 206.412 40.5094 205.882 40.7294C205.362 40.9494 204.787 41.0594 204.157 41.0594C203.347 41.0594 202.627 40.8894 201.997 40.5494C201.377 40.1994 200.892 39.7194 200.542 39.1094C200.192 38.4994 200.017 37.8094 200.017 37.0394C200.017 36.2694 200.182 35.5794 200.512 34.9694C200.852 34.3594 201.312 33.8844 201.892 33.5444C202.482 33.2044 203.142 33.0344 203.872 33.0344C204.602 33.0344 205.257 33.2044 205.837 33.5444C206.417 33.8844 206.872 34.3594 207.202 34.9694C207.532 35.5694 207.697 36.2594 207.697 37.0394L207.682 37.3694ZM203.872 33.9494C203.112 33.9494 202.472 34.1944 201.952 34.6844C201.442 35.1644 201.152 35.7944 201.082 36.5744H206.677C206.607 35.7944 206.312 35.1644 205.792 34.6844C205.282 34.1944 204.642 33.9494 203.872 33.9494ZM214.02 40.5044C213.82 40.6844 213.57 40.8244 213.27 40.9244C212.98 41.0144 212.675 41.0594 212.355 41.0594C211.615 41.0594 211.045 40.8594 210.645 40.4594C210.245 40.0594 210.045 39.4944 210.045 38.7644V33.9944H208.635V33.0944H210.045V31.3694H211.11V33.0944H213.51V33.9944H211.11V38.7044C211.11 39.1744 211.225 39.5344 211.455 39.7844C211.695 40.0244 212.035 40.1444 212.475 40.1444C212.695 40.1444 212.905 40.1094 213.105 40.0394C213.315 39.9694 213.495 39.8694 213.645 39.7394L214.02 40.5044ZM222.55 37.3694H215.95C216.01 38.1894 216.325 38.8544 216.895 39.3644C217.465 39.8644 218.185 40.1144 219.055 40.1144C219.545 40.1144 219.995 40.0294 220.405 39.8594C220.815 39.6794 221.17 39.4194 221.47 39.0794L222.07 39.7694C221.72 40.1894 221.28 40.5094 220.75 40.7294C220.23 40.9494 219.655 41.0594 219.025 41.0594C218.215 41.0594 217.495 40.8894 216.865 40.5494C216.245 40.1994 215.76 39.7194 215.41 39.1094C215.06 38.4994 214.885 37.8094 214.885 37.0394C214.885 36.2694 215.05 35.5794 215.38 34.9694C215.72 34.3594 216.18 33.8844 216.76 33.5444C217.35 33.2044 218.01 33.0344 218.74 33.0344C219.47 33.0344 220.125 33.2044 220.705 33.5444C221.285 33.8844 221.74 34.3594 222.07 34.9694C222.4 35.5694 222.565 36.2594 222.565 37.0394L222.55 37.3694ZM218.74 33.9494C217.98 33.9494 217.34 34.1944 216.82 34.6844C216.31 35.1644 216.02 35.7944 215.95 36.5744H221.545C221.475 35.7944 221.18 35.1644 220.66 34.6844C220.15 34.1944 219.51 33.9494 218.74 33.9494Z" fill="#1F213D"/>
<path d="M178.86 59.4844V69.9844H177.765V65.1394H171.195V69.9844H170.085V59.4844H171.195V64.1644H177.765V59.4844H178.86ZM184.822 62.0344C185.852 62.0344 186.642 62.2944 187.192 62.8144C187.742 63.3244 188.017 64.0844 188.017 65.0944V69.9844H186.997V68.7544C186.757 69.1644 186.402 69.4844 185.932 69.7144C185.472 69.9444 184.922 70.0594 184.282 70.0594C183.402 70.0594 182.702 69.8494 182.182 69.4294C181.662 69.0094 181.402 68.4544 181.402 67.7644C181.402 67.0944 181.642 66.5544 182.122 66.1444C182.612 65.7344 183.387 65.5294 184.447 65.5294H186.952V65.0494C186.952 64.3694 186.762 63.8544 186.382 63.5044C186.002 63.1444 185.447 62.9644 184.717 62.9644C184.217 62.9644 183.737 63.0494 183.277 63.2194C182.817 63.3794 182.422 63.6044 182.092 63.8944L181.612 63.0994C182.012 62.7594 182.492 62.4994 183.052 62.3194C183.612 62.1294 184.202 62.0344 184.822 62.0344ZM184.447 69.2194C185.047 69.2194 185.562 69.0844 185.992 68.8144C186.422 68.5344 186.742 68.1344 186.952 67.6144V66.3244H184.477C183.127 66.3244 182.452 66.7944 182.452 67.7344C182.452 68.1944 182.627 68.5594 182.977 68.8294C183.327 69.0894 183.817 69.2194 184.447 69.2194ZM193.025 70.0594C192.385 70.0594 191.77 69.9694 191.18 69.7894C190.6 69.5994 190.145 69.3644 189.815 69.0844L190.295 68.2444C190.625 68.5044 191.04 68.7194 191.54 68.8894C192.04 69.0494 192.56 69.1294 193.1 69.1294C193.82 69.1294 194.35 69.0194 194.69 68.7994C195.04 68.5694 195.215 68.2494 195.215 67.8394C195.215 67.5494 195.12 67.3244 194.93 67.1644C194.74 66.9944 194.5 66.8694 194.21 66.7894C193.92 66.6994 193.535 66.6144 193.055 66.5344C192.415 66.4144 191.9 66.2944 191.51 66.1744C191.12 66.0444 190.785 65.8294 190.505 65.5294C190.235 65.2294 190.1 64.8144 190.1 64.2844C190.1 63.6244 190.375 63.0844 190.925 62.6644C191.475 62.2444 192.24 62.0344 193.22 62.0344C193.73 62.0344 194.24 62.1044 194.75 62.2444C195.26 62.3744 195.68 62.5494 196.01 62.7694L195.545 63.6244C194.895 63.1744 194.12 62.9494 193.22 62.9494C192.54 62.9494 192.025 63.0694 191.675 63.3094C191.335 63.5494 191.165 63.8644 191.165 64.2544C191.165 64.5544 191.26 64.7944 191.45 64.9744C191.65 65.1544 191.895 65.2894 192.185 65.3794C192.475 65.4594 192.875 65.5444 193.385 65.6344C194.015 65.7544 194.52 65.8744 194.9 65.9944C195.28 66.1144 195.605 66.3194 195.875 66.6094C196.145 66.8994 196.28 67.2994 196.28 67.8094C196.28 68.4994 195.99 69.0494 195.41 69.4594C194.84 69.8594 194.045 70.0594 193.025 70.0594ZM209.044 66.3694H202.444C202.504 67.1894 202.819 67.8544 203.389 68.3644C203.959 68.8644 204.679 69.1144 205.549 69.1144C206.039 69.1144 206.489 69.0294 206.899 68.8594C207.309 68.6794 207.664 68.4194 207.964 68.0794L208.564 68.7694C208.214 69.1894 207.774 69.5094 207.244 69.7294C206.724 69.9494 206.149 70.0594 205.519 70.0594C204.709 70.0594 203.989 69.8894 203.359 69.5494C202.739 69.1994 202.254 68.7194 201.904 68.1094C201.554 67.4994 201.379 66.8094 201.379 66.0394C201.379 65.2694 201.544 64.5794 201.874 63.9694C202.214 63.3594 202.674 62.8844 203.254 62.5444C203.844 62.2044 204.504 62.0344 205.234 62.0344C205.964 62.0344 206.619 62.2044 207.199 62.5444C207.779 62.8844 208.234 63.3594 208.564 63.9694C208.894 64.5694 209.059 65.2594 209.059 66.0394L209.044 66.3694ZM205.234 62.9494C204.474 62.9494 203.834 63.1944 203.314 63.6844C202.804 64.1644 202.514 64.7944 202.444 65.5744H208.039C207.969 64.7944 207.674 64.1644 207.154 63.6844C206.644 63.1944 206.004 62.9494 205.234 62.9494ZM221.067 62.0344C222.057 62.0344 222.832 62.3194 223.392 62.8894C223.962 63.4594 224.247 64.2994 224.247 65.4094V69.9844H223.182V65.5144C223.182 64.6944 222.982 64.0694 222.582 63.6394C222.192 63.2094 221.637 62.9944 220.917 62.9944C220.097 62.9944 219.452 63.2494 218.982 63.7594C218.512 64.2594 218.277 64.9544 218.277 65.8444V69.9844H217.212V65.5144C217.212 64.6944 217.012 64.0694 216.612 63.6394C216.222 63.2094 215.662 62.9944 214.932 62.9944C214.122 62.9944 213.477 63.2494 212.997 63.7594C212.527 64.2594 212.292 64.9544 212.292 65.8444V69.9844H211.227V62.0944H212.247V63.5344C212.527 63.0544 212.917 62.6844 213.417 62.4244C213.917 62.1644 214.492 62.0344 215.142 62.0344C215.802 62.0344 216.372 62.1744 216.852 62.4544C217.342 62.7344 217.707 63.1494 217.947 63.6994C218.237 63.1794 218.652 62.7744 219.192 62.4844C219.742 62.1844 220.367 62.0344 221.067 62.0344ZM230.39 70.0594C229.63 70.0594 228.945 69.8894 228.335 69.5494C227.725 69.1994 227.245 68.7194 226.895 68.1094C226.545 67.4994 226.37 66.8094 226.37 66.0394C226.37 65.2694 226.545 64.5794 226.895 63.9694C227.245 63.3594 227.725 62.8844 228.335 62.5444C228.945 62.2044 229.63 62.0344 230.39 62.0344C231.15 62.0344 231.835 62.2044 232.445 62.5444C233.055 62.8844 233.53 63.3594 233.87 63.9694C234.22 64.5794 234.395 65.2694 234.395 66.0394C234.395 66.8094 234.22 67.4994 233.87 68.1094C233.53 68.7194 233.055 69.1994 232.445 69.5494C231.835 69.8894 231.15 70.0594 230.39 70.0594ZM230.39 69.1144C230.95 69.1144 231.45 68.9894 231.89 68.7394C232.34 68.4794 232.69 68.1144 232.94 67.6444C233.19 67.1744 233.315 66.6394 233.315 66.0394C233.315 65.4394 233.19 64.9044 232.94 64.4344C232.69 63.9644 232.34 63.6044 231.89 63.3544C231.45 63.0944 230.95 62.9644 230.39 62.9644C229.83 62.9644 229.325 63.0944 228.875 63.3544C228.435 63.6044 228.085 63.9644 227.825 64.4344C227.575 64.9044 227.45 65.4394 227.45 66.0394C227.45 66.6394 227.575 67.1744 227.825 67.6444C228.085 68.1144 228.435 68.4794 228.875 68.7394C229.325 68.9894 229.83 69.1144 230.39 69.1144ZM240.724 69.5044C240.524 69.6844 240.274 69.8244 239.974 69.9244C239.684 70.0144 239.379 70.0594 239.059 70.0594C238.319 70.0594 237.749 69.8594 237.349 69.4594C236.949 69.0594 236.749 68.4944 236.749 67.7644V62.9944H235.339V62.0944H236.749V60.3694H237.814V62.0944H240.214V62.9944H237.814V67.7044C237.814 68.1744 237.929 68.5344 238.159 68.7844C238.399 69.0244 238.739 69.1444 239.179 69.1444C239.399 69.1444 239.609 69.1094 239.809 69.0394C240.019 68.9694 240.199 68.8694 240.349 68.7394L240.724 69.5044ZM242.663 62.0944H243.728V69.9844H242.663V62.0944ZM243.203 60.3694C242.983 60.3694 242.798 60.2944 242.648 60.1444C242.498 59.9944 242.423 59.8144 242.423 59.6044C242.423 59.4044 242.498 59.2294 242.648 59.0794C242.798 58.9294 242.983 58.8544 243.203 58.8544C243.423 58.8544 243.608 58.9294 243.758 59.0794C243.908 59.2194 243.983 59.3894 243.983 59.5894C243.983 59.8094 243.908 59.9944 243.758 60.1444C243.608 60.2944 243.423 60.3694 243.203 60.3694ZM249.916 70.0594C249.156 70.0594 248.471 69.8894 247.861 69.5494C247.251 69.1994 246.771 68.7194 246.421 68.1094C246.071 67.4994 245.896 66.8094 245.896 66.0394C245.896 65.2694 246.071 64.5794 246.421 63.9694C246.771 63.3594 247.251 62.8844 247.861 62.5444C248.471 62.2044 249.156 62.0344 249.916 62.0344C250.676 62.0344 251.361 62.2044 251.971 62.5444C252.581 62.8844 253.056 63.3594 253.396 63.9694C253.746 64.5794 253.921 65.2694 253.921 66.0394C253.921 66.8094 253.746 67.4994 253.396 68.1094C253.056 68.7194 252.581 69.1994 251.971 69.5494C251.361 69.8894 250.676 70.0594 249.916 70.0594ZM249.916 69.1144C250.476 69.1144 250.976 68.9894 251.416 68.7394C251.866 68.4794 252.216 68.1144 252.466 67.6444C252.716 67.1744 252.841 66.6394 252.841 66.0394C252.841 65.4394 252.716 64.9044 252.466 64.4344C252.216 63.9644 251.866 63.6044 251.416 63.3544C250.976 63.0944 250.476 62.9644 249.916 62.9644C249.356 62.9644 248.851 63.0944 248.401 63.3544C247.961 63.6044 247.611 63.9644 247.351 64.4344C247.101 64.9044 246.976 65.4394 246.976 66.0394C246.976 66.6394 247.101 67.1744 247.351 67.6444C247.611 68.1144 247.961 68.4794 248.401 68.7394C248.851 68.9894 249.356 69.1144 249.916 69.1144ZM260.115 62.0344C261.105 62.0344 261.89 62.3244 262.47 62.9044C263.06 63.4744 263.355 64.3094 263.355 65.4094V69.9844H262.29V65.5144C262.29 64.6944 262.085 64.0694 261.675 63.6394C261.265 63.2094 260.68 62.9944 259.92 62.9944C259.07 62.9944 258.395 63.2494 257.895 63.7594C257.405 64.2594 257.16 64.9544 257.16 65.8444V69.9844H256.095V62.0944H257.115V63.5494C257.405 63.0694 257.805 62.6994 258.315 62.4394C258.835 62.1694 259.435 62.0344 260.115 62.0344ZM269.007 62.0344C270.037 62.0344 270.827 62.2944 271.377 62.8144C271.927 63.3244 272.202 64.0844 272.202 65.0944V69.9844H271.182V68.7544C270.942 69.1644 270.587 69.4844 270.117 69.7144C269.657 69.9444 269.107 70.0594 268.467 70.0594C267.587 70.0594 266.887 69.8494 266.367 69.4294C265.847 69.0094 265.587 68.4544 265.587 67.7644C265.587 67.0944 265.827 66.5544 266.307 66.1444C266.797 65.7344 267.572 65.5294 268.632 65.5294H271.137V65.0494C271.137 64.3694 270.947 63.8544 270.567 63.5044C270.187 63.1444 269.632 62.9644 268.902 62.9644C268.402 62.9644 267.922 63.0494 267.462 63.2194C267.002 63.3794 266.607 63.6044 266.277 63.8944L265.797 63.0994C266.197 62.7594 266.677 62.4994 267.237 62.3194C267.797 62.1294 268.387 62.0344 269.007 62.0344ZM268.632 69.2194C269.232 69.2194 269.747 69.0844 270.177 68.8144C270.607 68.5344 270.927 68.1344 271.137 67.6144V66.3244H268.662C267.312 66.3244 266.637 66.7944 266.637 67.7344C266.637 68.1944 266.812 68.5594 267.162 68.8294C267.512 69.0894 268.002 69.2194 268.632 69.2194ZM275.094 58.8544H276.159V69.9844H275.094V58.8544ZM171.975 87.0594C171.335 87.0594 170.72 86.9694 170.13 86.7894C169.55 86.5994 169.095 86.3644 168.765 86.0844L169.245 85.2444C169.575 85.5044 169.99 85.7194 170.49 85.8894C170.99 86.0494 171.51 86.1294 172.05 86.1294C172.77 86.1294 173.3 86.0194 173.64 85.7994C173.99 85.5694 174.165 85.2494 174.165 84.8394C174.165 84.5494 174.07 84.3244 173.88 84.1644C173.69 83.9944 173.45 83.8694 173.16 83.7894C172.87 83.6994 172.485 83.6144 172.005 83.5344C171.365 83.4144 170.85 83.2944 170.46 83.1744C170.07 83.0444 169.735 82.8294 169.455 82.5294C169.185 82.2294 169.05 81.8144 169.05 81.2844C169.05 80.6244 169.325 80.0844 169.875 79.6644C170.425 79.2444 171.19 79.0344 172.17 79.0344C172.68 79.0344 173.19 79.1044 173.7 79.2444C174.21 79.3744 174.63 79.5494 174.96 79.7694L174.495 80.6244C173.845 80.1744 173.07 79.9494 172.17 79.9494C171.49 79.9494 170.975 80.0694 170.625 80.3094C170.285 80.5494 170.115 80.8644 170.115 81.2544C170.115 81.5544 170.21 81.7944 170.4 81.9744C170.6 82.1544 170.845 82.2894 171.135 82.3794C171.425 82.4594 171.825 82.5444 172.335 82.6344C172.965 82.7544 173.47 82.8744 173.85 82.9944C174.23 83.1144 174.555 83.3194 174.825 83.6094C175.095 83.8994 175.23 84.2994 175.23 84.8094C175.23 85.4994 174.94 86.0494 174.36 86.4594C173.79 86.8594 172.995 87.0594 171.975 87.0594ZM184.309 79.0944V86.9844H183.289V85.5444C183.009 86.0244 182.624 86.3994 182.134 86.6694C181.644 86.9294 181.084 87.0594 180.454 87.0594C179.424 87.0594 178.609 86.7744 178.009 86.2044C177.419 85.6244 177.124 84.7794 177.124 83.6694V79.0944H178.189V83.5644C178.189 84.3944 178.394 85.0244 178.804 85.4544C179.214 85.8844 179.799 86.0994 180.559 86.0994C181.389 86.0994 182.044 85.8494 182.524 85.3494C183.004 84.8394 183.244 84.1344 183.244 83.2344V79.0944H184.309ZM191.357 79.0344C192.097 79.0344 192.767 79.2044 193.367 79.5444C193.967 79.8744 194.437 80.3444 194.777 80.9544C195.117 81.5644 195.287 82.2594 195.287 83.0394C195.287 83.8294 195.117 84.5294 194.777 85.1394C194.437 85.7494 193.967 86.2244 193.367 86.5644C192.777 86.8944 192.107 87.0594 191.357 87.0594C190.717 87.0594 190.137 86.9294 189.617 86.6694C189.107 86.3994 188.687 86.0094 188.357 85.4994V89.8944H187.292V79.0944H188.312V80.6544C188.632 80.1344 189.052 79.7344 189.572 79.4544C190.102 79.1744 190.697 79.0344 191.357 79.0344ZM191.282 86.1144C191.832 86.1144 192.332 85.9894 192.782 85.7394C193.232 85.4794 193.582 85.1144 193.832 84.6444C194.092 84.1744 194.222 83.6394 194.222 83.0394C194.222 82.4394 194.092 81.9094 193.832 81.4494C193.582 80.9794 193.232 80.6144 192.782 80.3544C192.332 80.0944 191.832 79.9644 191.282 79.9644C190.722 79.9644 190.217 80.0944 189.767 80.3544C189.327 80.6144 188.977 80.9794 188.717 81.4494C188.467 81.9094 188.342 82.4394 188.342 83.0394C188.342 83.6394 188.467 84.1744 188.717 84.6444C188.977 85.1144 189.327 85.4794 189.767 85.7394C190.217 85.9894 190.722 86.1144 191.282 86.1144ZM201.523 79.0344C202.263 79.0344 202.933 79.2044 203.533 79.5444C204.133 79.8744 204.603 80.3444 204.943 80.9544C205.283 81.5644 205.453 82.2594 205.453 83.0394C205.453 83.8294 205.283 84.5294 204.943 85.1394C204.603 85.7494 204.133 86.2244 203.533 86.5644C202.943 86.8944 202.273 87.0594 201.523 87.0594C200.883 87.0594 200.303 86.9294 199.783 86.6694C199.273 86.3994 198.853 86.0094 198.523 85.4994V89.8944H197.458V79.0944H198.478V80.6544C198.798 80.1344 199.218 79.7344 199.738 79.4544C200.268 79.1744 200.863 79.0344 201.523 79.0344ZM201.448 86.1144C201.998 86.1144 202.498 85.9894 202.948 85.7394C203.398 85.4794 203.748 85.1144 203.998 84.6444C204.258 84.1744 204.388 83.6394 204.388 83.0394C204.388 82.4394 204.258 81.9094 203.998 81.4494C203.748 80.9794 203.398 80.6144 202.948 80.3544C202.498 80.0944 201.998 79.9644 201.448 79.9644C200.888 79.9644 200.383 80.0944 199.933 80.3544C199.493 80.6144 199.143 80.9794 198.883 81.4494C198.633 81.9094 198.508 82.4394 198.508 83.0394C198.508 83.6394 198.633 84.1744 198.883 84.6444C199.143 85.1144 199.493 85.4794 199.933 85.7394C200.383 85.9894 200.888 86.1144 201.448 86.1144ZM210.849 87.0594C210.089 87.0594 209.404 86.8894 208.794 86.5494C208.184 86.1994 207.704 85.7194 207.354 85.1094C207.004 84.4994 206.829 83.8094 206.829 83.0394C206.829 82.2694 207.004 81.5794 207.354 80.9694C207.704 80.3594 208.184 79.8844 208.794 79.5444C209.404 79.2044 210.089 79.0344 210.849 79.0344C211.609 79.0344 212.294 79.2044 212.904 79.5444C213.514 79.8844 213.989 80.3594 214.329 80.9694C214.679 81.5794 214.854 82.2694 214.854 83.0394C214.854 83.8094 214.679 84.4994 214.329 85.1094C213.989 85.7194 213.514 86.1994 212.904 86.5494C212.294 86.8894 211.609 87.0594 210.849 87.0594ZM210.849 86.1144C211.409 86.1144 211.909 85.9894 212.349 85.7394C212.799 85.4794 213.149 85.1144 213.399 84.6444C213.649 84.1744 213.774 83.6394 213.774 83.0394C213.774 82.4394 213.649 81.9044 213.399 81.4344C213.149 80.9644 212.799 80.6044 212.349 80.3544C211.909 80.0944 211.409 79.9644 210.849 79.9644C210.289 79.9644 209.784 80.0944 209.334 80.3544C208.894 80.6044 208.544 80.9644 208.284 81.4344C208.034 81.9044 207.909 82.4394 207.909 83.0394C207.909 83.6394 208.034 84.1744 208.284 84.6444C208.544 85.1144 208.894 85.4794 209.334 85.7394C209.784 85.9894 210.289 86.1144 210.849 86.1144ZM218.048 80.6394C218.298 80.1094 218.668 79.7094 219.158 79.4394C219.658 79.1694 220.273 79.0344 221.003 79.0344V80.0694L220.748 80.0544C219.918 80.0544 219.268 80.3094 218.798 80.8194C218.328 81.3294 218.093 82.0444 218.093 82.9644V86.9844H217.028V79.0944H218.048V80.6394ZM227.423 86.5044C227.223 86.6844 226.973 86.8244 226.673 86.9244C226.383 87.0144 226.078 87.0594 225.758 87.0594C225.018 87.0594 224.448 86.8594 224.048 86.4594C223.648 86.0594 223.448 85.4944 223.448 84.7644V79.9944H222.038V79.0944H223.448V77.3694H224.513V79.0944H226.913V79.9944H224.513V84.7044C224.513 85.1744 224.628 85.5344 224.858 85.7844C225.098 86.0244 225.438 86.1444 225.878 86.1444C226.098 86.1444 226.308 86.1094 226.508 86.0394C226.718 85.9694 226.898 85.8694 227.048 85.7394L227.423 86.5044ZM236.048 79.0344C237.078 79.0344 237.868 79.2944 238.418 79.8144C238.968 80.3244 239.243 81.0844 239.243 82.0944V86.9844H238.223V85.7544C237.983 86.1644 237.628 86.4844 237.158 86.7144C236.698 86.9444 236.148 87.0594 235.508 87.0594C234.628 87.0594 233.928 86.8494 233.408 86.4294C232.888 86.0094 232.628 85.4544 232.628 84.7644C232.628 84.0944 232.868 83.5544 233.348 83.1444C233.838 82.7344 234.613 82.5294 235.673 82.5294H238.178V82.0494C238.178 81.3694 237.988 80.8544 237.608 80.5044C237.228 80.1444 236.673 79.9644 235.943 79.9644C235.443 79.9644 234.963 80.0494 234.503 80.2194C234.043 80.3794 233.648 80.6044 233.318 80.8944L232.838 80.0994C233.238 79.7594 233.718 79.4994 234.278 79.3194C234.838 79.1294 235.428 79.0344 236.048 79.0344ZM235.673 86.2194C236.273 86.2194 236.788 86.0844 237.218 85.8144C237.648 85.5344 237.968 85.1344 238.178 84.6144V83.3244H235.703C234.353 83.3244 233.678 83.7944 233.678 84.7344C233.678 85.1944 233.853 85.5594 234.203 85.8294C234.553 86.0894 235.043 86.2194 235.673 86.2194ZM246.155 79.0344C247.145 79.0344 247.93 79.3244 248.51 79.9044C249.1 80.4744 249.395 81.3094 249.395 82.4094V86.9844H248.33V82.5144C248.33 81.6944 248.125 81.0694 247.715 80.6394C247.305 80.2094 246.72 79.9944 245.96 79.9944C245.11 79.9944 244.435 80.2494 243.935 80.7594C243.445 81.2594 243.2 81.9544 243.2 82.8444V86.9844H242.135V79.0944H243.155V80.5494C243.445 80.0694 243.845 79.6994 244.355 79.4394C244.875 79.1694 245.475 79.0344 246.155 79.0344ZM252.287 79.0944H253.352V86.9844H252.287V79.0944ZM252.827 77.3694C252.607 77.3694 252.422 77.2944 252.272 77.1444C252.122 76.9944 252.047 76.8144 252.047 76.6044C252.047 76.4044 252.122 76.2294 252.272 76.0794C252.422 75.9294 252.607 75.8544 252.827 75.8544C253.047 75.8544 253.232 75.9294 253.382 76.0794C253.532 76.2194 253.607 76.3894 253.607 76.5894C253.607 76.8094 253.532 76.9944 253.382 77.1444C253.232 77.2944 253.047 77.3694 252.827 77.3694ZM266.155 79.0344C267.145 79.0344 267.92 79.3194 268.48 79.8894C269.05 80.4594 269.335 81.2994 269.335 82.4094V86.9844H268.27V82.5144C268.27 81.6944 268.07 81.0694 267.67 80.6394C267.28 80.2094 266.725 79.9944 266.005 79.9944C265.185 79.9944 264.54 80.2494 264.07 80.7594C263.6 81.2594 263.365 81.9544 263.365 82.8444V86.9844H262.3V82.5144C262.3 81.6944 262.1 81.0694 261.7 80.6394C261.31 80.2094 260.75 79.9944 260.02 79.9944C259.21 79.9944 258.565 80.2494 258.085 80.7594C257.615 81.2594 257.38 81.9544 257.38 82.8444V86.9844H256.315V79.0944H257.335V80.5344C257.615 80.0544 258.005 79.6844 258.505 79.4244C259.005 79.1644 259.58 79.0344 260.23 79.0344C260.89 79.0344 261.46 79.1744 261.94 79.4544C262.43 79.7344 262.795 80.1494 263.035 80.6994C263.325 80.1794 263.74 79.7744 264.28 79.4844C264.83 79.1844 265.455 79.0344 266.155 79.0344ZM274.983 79.0344C276.013 79.0344 276.803 79.2944 277.353 79.8144C277.903 80.3244 278.178 81.0844 278.178 82.0944V86.9844H277.158V85.7544C276.918 86.1644 276.563 86.4844 276.093 86.7144C275.633 86.9444 275.083 87.0594 274.443 87.0594C273.563 87.0594 272.863 86.8494 272.343 86.4294C271.823 86.0094 271.563 85.4544 271.563 84.7644C271.563 84.0944 271.803 83.5544 272.283 83.1444C272.773 82.7344 273.548 82.5294 274.608 82.5294H277.113V82.0494C277.113 81.3694 276.923 80.8544 276.543 80.5044C276.163 80.1444 275.608 79.9644 274.878 79.9644C274.378 79.9644 273.898 80.0494 273.438 80.2194C272.978 80.3794 272.583 80.6044 272.253 80.8944L271.773 80.0994C272.173 79.7594 272.653 79.4994 273.213 79.3194C273.773 79.1294 274.363 79.0344 274.983 79.0344ZM274.608 86.2194C275.208 86.2194 275.723 86.0844 276.153 85.8144C276.583 85.5344 276.903 85.1344 277.113 84.6144V83.3244H274.638C273.288 83.3244 272.613 83.7944 272.613 84.7344C272.613 85.1944 272.788 85.5594 273.138 85.8294C273.488 86.0894 273.978 86.2194 274.608 86.2194ZM281.071 75.8544H282.136V86.9844H281.071V75.8544Z" fill="#1F213D"/>
<path opacity="0.7" d="M170.085 105.484H171.195V115.024H177.075V115.984H170.085V105.484ZM186.108 110.734H187.173V114.739C186.683 115.169 186.103 115.499 185.433 115.729C184.763 115.959 184.058 116.074 183.318 116.074C182.268 116.074 181.323 115.844 180.483 115.384C179.643 114.924 178.983 114.289 178.503 113.479C178.023 112.659 177.783 111.744 177.783 110.734C177.783 109.724 178.023 108.814 178.503 108.004C178.983 107.184 179.643 106.544 180.483 106.084C181.323 105.624 182.273 105.394 183.333 105.394C184.133 105.394 184.868 105.524 185.538 105.784C186.208 106.034 186.773 106.409 187.233 106.909L186.543 107.614C185.713 106.794 184.658 106.384 183.378 106.384C182.528 106.384 181.758 106.574 181.068 106.954C180.388 107.324 179.853 107.844 179.463 108.514C179.073 109.174 178.878 109.914 178.878 110.734C178.878 111.554 179.073 112.294 179.463 112.954C179.853 113.614 180.388 114.134 181.068 114.514C181.748 114.894 182.513 115.084 183.363 115.084C184.443 115.084 185.358 114.814 186.108 114.274V110.734ZM196.929 110.569C197.619 110.719 198.149 111.019 198.519 111.469C198.899 111.909 199.089 112.479 199.089 113.179C199.089 114.079 198.754 114.774 198.084 115.264C197.424 115.744 196.444 115.984 195.144 115.984H190.314V105.484H194.844C196.014 105.484 196.919 105.719 197.559 106.189C198.209 106.659 198.534 107.324 198.534 108.184C198.534 108.764 198.389 109.259 198.099 109.669C197.819 110.069 197.429 110.369 196.929 110.569ZM191.424 106.399V110.209H194.769C195.619 110.209 196.274 110.049 196.734 109.729C197.194 109.399 197.424 108.924 197.424 108.304C197.424 107.684 197.194 107.214 196.734 106.894C196.274 106.564 195.619 106.399 194.769 106.399H191.424ZM195.129 115.069C196.069 115.069 196.779 114.909 197.259 114.589C197.739 114.269 197.979 113.769 197.979 113.089C197.979 111.779 197.029 111.124 195.129 111.124H191.424V115.069H195.129ZM203.517 106.444H199.827V105.484H208.317V106.444H204.627V115.984H203.517V106.444ZM220.518 116.869C220.198 117.259 219.818 117.554 219.378 117.754C218.948 117.964 218.478 118.069 217.968 118.069C217.348 118.069 216.758 117.914 216.198 117.604C215.648 117.304 215.028 116.794 214.338 116.074C213.328 116.044 212.418 115.794 211.608 115.324C210.798 114.854 210.163 114.219 209.703 113.419C209.243 112.619 209.013 111.724 209.013 110.734C209.013 109.724 209.248 108.814 209.718 108.004C210.198 107.194 210.858 106.559 211.698 106.099C212.548 105.629 213.493 105.394 214.533 105.394C215.573 105.394 216.508 105.624 217.338 106.084C218.178 106.544 218.838 107.184 219.318 108.004C219.798 108.814 220.038 109.724 220.038 110.734C220.038 111.614 219.853 112.424 219.483 113.164C219.123 113.894 218.613 114.504 217.953 114.994C217.303 115.484 216.553 115.809 215.703 115.969C216.473 116.779 217.233 117.184 217.983 117.184C218.763 117.184 219.428 116.864 219.978 116.224L220.518 116.869ZM210.108 110.734C210.108 111.554 210.298 112.294 210.678 112.954C211.068 113.614 211.598 114.134 212.268 114.514C212.948 114.894 213.703 115.084 214.533 115.084C215.363 115.084 216.113 114.894 216.783 114.514C217.453 114.134 217.978 113.614 218.358 112.954C218.738 112.294 218.928 111.554 218.928 110.734C218.928 109.914 218.738 109.174 218.358 108.514C217.978 107.854 217.453 107.334 216.783 106.954C216.113 106.574 215.363 106.384 214.533 106.384C213.703 106.384 212.948 106.574 212.268 106.954C211.598 107.334 211.068 107.854 210.678 108.514C210.298 109.174 210.108 109.914 210.108 110.734ZM228.509 111.184H225.719V113.914H224.774V111.184H221.984V110.299H224.774V107.554H225.719V110.299H228.509V111.184ZM174.645 133.074C173.605 133.074 172.665 132.844 171.825 132.384C170.995 131.924 170.34 131.289 169.86 130.479C169.39 129.659 169.155 128.744 169.155 127.734C169.155 126.724 169.39 125.814 169.86 125.004C170.34 124.184 171 123.544 171.84 123.084C172.68 122.624 173.62 122.394 174.66 122.394C175.44 122.394 176.16 122.524 176.82 122.784C177.48 123.044 178.04 123.424 178.5 123.924L177.795 124.629C176.975 123.799 175.94 123.384 174.69 123.384C173.86 123.384 173.105 123.574 172.425 123.954C171.745 124.334 171.21 124.854 170.82 125.514C170.44 126.174 170.25 126.914 170.25 127.734C170.25 128.554 170.44 129.294 170.82 129.954C171.21 130.614 171.745 131.134 172.425 131.514C173.105 131.894 173.86 132.084 174.69 132.084C175.95 132.084 176.985 131.664 177.795 130.824L178.5 131.529C178.04 132.029 177.475 132.414 176.805 132.684C176.145 132.944 175.425 133.074 174.645 133.074ZM183.515 133.059C182.755 133.059 182.07 132.889 181.46 132.549C180.85 132.199 180.37 131.719 180.02 131.109C179.67 130.499 179.495 129.809 179.495 129.039C179.495 128.269 179.67 127.579 180.02 126.969C180.37 126.359 180.85 125.884 181.46 125.544C182.07 125.204 182.755 125.034 183.515 125.034C184.275 125.034 184.96 125.204 185.57 125.544C186.18 125.884 186.655 126.359 186.995 126.969C187.345 127.579 187.52 128.269 187.52 129.039C187.52 129.809 187.345 130.499 186.995 131.109C186.655 131.719 186.18 132.199 185.57 132.549C184.96 132.889 184.275 133.059 183.515 133.059ZM183.515 132.114C184.075 132.114 184.575 131.989 185.015 131.739C185.465 131.479 185.815 131.114 186.065 130.644C186.315 130.174 186.44 129.639 186.44 129.039C186.44 128.439 186.315 127.904 186.065 127.434C185.815 126.964 185.465 126.604 185.015 126.354C184.575 126.094 184.075 125.964 183.515 125.964C182.955 125.964 182.45 126.094 182 126.354C181.56 126.604 181.21 126.964 180.95 127.434C180.7 127.904 180.575 128.439 180.575 129.039C180.575 129.639 180.7 130.174 180.95 130.644C181.21 131.114 181.56 131.479 182 131.739C182.45 131.989 182.955 132.114 183.515 132.114ZM199.534 125.034C200.524 125.034 201.299 125.319 201.859 125.889C202.429 126.459 202.714 127.299 202.714 128.409V132.984H201.649V128.514C201.649 127.694 201.449 127.069 201.049 126.639C200.659 126.209 200.104 125.994 199.384 125.994C198.564 125.994 197.919 126.249 197.449 126.759C196.979 127.259 196.744 127.954 196.744 128.844V132.984H195.679V128.514C195.679 127.694 195.479 127.069 195.079 126.639C194.689 126.209 194.129 125.994 193.399 125.994C192.589 125.994 191.944 126.249 191.464 126.759C190.994 127.259 190.759 127.954 190.759 128.844V132.984H189.694V125.094H190.714V126.534C190.994 126.054 191.384 125.684 191.884 125.424C192.384 125.164 192.959 125.034 193.609 125.034C194.269 125.034 194.839 125.174 195.319 125.454C195.809 125.734 196.174 126.149 196.414 126.699C196.704 126.179 197.119 125.774 197.659 125.484C198.209 125.184 198.834 125.034 199.534 125.034ZM215.442 125.034C216.432 125.034 217.207 125.319 217.767 125.889C218.337 126.459 218.622 127.299 218.622 128.409V132.984H217.557V128.514C217.557 127.694 217.357 127.069 216.957 126.639C216.567 126.209 216.012 125.994 215.292 125.994C214.472 125.994 213.827 126.249 213.357 126.759C212.887 127.259 212.652 127.954 212.652 128.844V132.984H211.587V128.514C211.587 127.694 211.387 127.069 210.987 126.639C210.597 126.209 210.037 125.994 209.307 125.994C208.497 125.994 207.852 126.249 207.372 126.759C206.902 127.259 206.667 127.954 206.667 128.844V132.984H205.602V125.094H206.622V126.534C206.902 126.054 207.292 125.684 207.792 125.424C208.292 125.164 208.867 125.034 209.517 125.034C210.177 125.034 210.747 125.174 211.227 125.454C211.717 125.734 212.082 126.149 212.322 126.699C212.612 126.179 213.027 125.774 213.567 125.484C214.117 125.184 214.742 125.034 215.442 125.034ZM228.62 125.094V132.984H227.6V131.544C227.32 132.024 226.935 132.399 226.445 132.669C225.955 132.929 225.395 133.059 224.765 133.059C223.735 133.059 222.92 132.774 222.32 132.204C221.73 131.624 221.435 130.779 221.435 129.669V125.094H222.5V129.564C222.5 130.394 222.705 131.024 223.115 131.454C223.525 131.884 224.11 132.099 224.87 132.099C225.7 132.099 226.355 131.849 226.835 131.349C227.315 130.839 227.555 130.134 227.555 129.234V125.094H228.62ZM235.623 125.034C236.613 125.034 237.398 125.324 237.978 125.904C238.568 126.474 238.863 127.309 238.863 128.409V132.984H237.798V128.514C237.798 127.694 237.593 127.069 237.183 126.639C236.773 126.209 236.188 125.994 235.428 125.994C234.578 125.994 233.903 126.249 233.403 126.759C232.913 127.259 232.668 127.954 232.668 128.844V132.984H231.603V125.094H232.623V126.549C232.913 126.069 233.313 125.699 233.823 125.439C234.343 125.169 234.943 125.034 235.623 125.034ZM241.755 125.094H242.82V132.984H241.755V125.094ZM242.295 123.369C242.075 123.369 241.89 123.294 241.74 123.144C241.59 122.994 241.515 122.814 241.515 122.604C241.515 122.404 241.59 122.229 241.74 122.079C241.89 121.929 242.075 121.854 242.295 121.854C242.515 121.854 242.7 121.929 242.85 122.079C243 122.219 243.075 122.389 243.075 122.589C243.075 122.809 243 122.994 242.85 123.144C242.7 123.294 242.515 123.369 242.295 123.369ZM249.938 132.504C249.738 132.684 249.488 132.824 249.188 132.924C248.898 133.014 248.593 133.059 248.273 133.059C247.533 133.059 246.963 132.859 246.563 132.459C246.163 132.059 245.963 131.494 245.963 130.764V125.994H244.553V125.094H245.963V123.369H247.028V125.094H249.428V125.994H247.028V130.704C247.028 131.174 247.143 131.534 247.373 131.784C247.613 132.024 247.953 132.144 248.393 132.144C248.613 132.144 248.823 132.109 249.023 132.039C249.233 131.969 249.413 131.869 249.563 131.739L249.938 132.504ZM258.36 125.094L254.415 133.929C254.095 134.669 253.725 135.194 253.305 135.504C252.885 135.814 252.38 135.969 251.79 135.969C251.41 135.969 251.055 135.909 250.725 135.789C250.395 135.669 250.11 135.489 249.87 135.249L250.365 134.454C250.765 134.854 251.245 135.054 251.805 135.054C252.165 135.054 252.47 134.954 252.72 134.754C252.98 134.554 253.22 134.214 253.44 133.734L253.785 132.969L250.26 125.094H251.37L254.34 131.799L257.31 125.094H258.36ZM267.806 125.034C268.796 125.034 269.581 125.324 270.161 125.904C270.751 126.474 271.046 127.309 271.046 128.409V132.984H269.981V128.514C269.981 127.694 269.776 127.069 269.366 126.639C268.956 126.209 268.371 125.994 267.611 125.994C266.761 125.994 266.086 126.249 265.586 126.759C265.096 127.259 264.851 127.954 264.851 128.844V132.984H263.786V121.854H264.851V126.474C265.141 126.014 265.541 125.659 266.051 125.409C266.561 125.159 267.146 125.034 267.806 125.034ZM277.191 133.059C276.431 133.059 275.746 132.889 275.136 132.549C274.526 132.199 274.046 131.719 273.696 131.109C273.346 130.499 273.171 129.809 273.171 129.039C273.171 128.269 273.346 127.579 273.696 126.969C274.046 126.359 274.526 125.884 275.136 125.544C275.746 125.204 276.431 125.034 277.191 125.034C277.951 125.034 278.636 125.204 279.246 125.544C279.856 125.884 280.331 126.359 280.671 126.969C281.021 127.579 281.196 128.269 281.196 129.039C281.196 129.809 281.021 130.499 280.671 131.109C280.331 131.719 279.856 132.199 279.246 132.549C278.636 132.889 277.951 133.059 277.191 133.059ZM277.191 132.114C277.751 132.114 278.251 131.989 278.691 131.739C279.141 131.479 279.491 131.114 279.741 130.644C279.991 130.174 280.116 129.639 280.116 129.039C280.116 128.439 279.991 127.904 279.741 127.434C279.491 126.964 279.141 126.604 278.691 126.354C278.251 126.094 277.751 125.964 277.191 125.964C276.631 125.964 276.126 126.094 275.676 126.354C275.236 126.604 274.886 126.964 274.626 127.434C274.376 127.904 274.251 128.439 274.251 129.039C274.251 129.639 274.376 130.174 274.626 130.644C274.886 131.114 275.236 131.479 275.676 131.739C276.126 131.989 276.631 132.114 277.191 132.114ZM290.481 125.094V132.984H289.461V131.544C289.181 132.024 288.796 132.399 288.306 132.669C287.816 132.929 287.256 133.059 286.626 133.059C285.596 133.059 284.781 132.774 284.181 132.204C283.591 131.624 283.296 130.779 283.296 129.669V125.094H284.361V129.564C284.361 130.394 284.566 131.024 284.976 131.454C285.386 131.884 285.971 132.099 286.731 132.099C287.561 132.099 288.216 131.849 288.696 131.349C289.176 130.839 289.416 130.134 289.416 129.234V125.094H290.481ZM295.579 133.059C294.939 133.059 294.324 132.969 293.734 132.789C293.154 132.599 292.699 132.364 292.369 132.084L292.849 131.244C293.179 131.504 293.594 131.719 294.094 131.889C294.594 132.049 295.114 132.129 295.654 132.129C296.374 132.129 296.904 132.019 297.244 131.799C297.594 131.569 297.769 131.249 297.769 130.839C297.769 130.549 297.674 130.324 297.484 130.164C297.294 129.994 297.054 129.869 296.764 129.789C296.474 129.699 296.089 129.614 295.609 129.534C294.969 129.414 294.454 129.294 294.064 129.174C293.674 129.044 293.339 128.829 293.059 128.529C292.789 128.229 292.654 127.814 292.654 127.284C292.654 126.624 292.929 126.084 293.479 125.664C294.029 125.244 294.794 125.034 295.774 125.034C296.284 125.034 296.794 125.104 297.304 125.244C297.814 125.374 298.234 125.549 298.564 125.769L298.099 126.624C297.449 126.174 296.674 125.949 295.774 125.949C295.094 125.949 294.579 126.069 294.229 126.309C293.889 126.549 293.719 126.864 293.719 127.254C293.719 127.554 293.814 127.794 294.004 127.974C294.204 128.154 294.449 128.289 294.739 128.379C295.029 128.459 295.429 128.544 295.939 128.634C296.569 128.754 297.074 128.874 297.454 128.994C297.834 129.114 298.159 129.319 298.429 129.609C298.699 129.899 298.834 130.299 298.834 130.809C298.834 131.499 298.544 132.049 297.964 132.459C297.394 132.859 296.599 133.059 295.579 133.059ZM300.802 125.094H301.867V132.984H300.802V125.094ZM301.342 123.369C301.122 123.369 300.937 123.294 300.787 123.144C300.637 122.994 300.562 122.814 300.562 122.604C300.562 122.404 300.637 122.229 300.787 122.079C300.937 121.929 301.122 121.854 301.342 121.854C301.562 121.854 301.747 121.929 301.897 122.079C302.047 122.219 302.122 122.389 302.122 122.589C302.122 122.809 302.047 122.994 301.897 123.144C301.747 123.294 301.562 123.369 301.342 123.369ZM308.851 125.034C309.841 125.034 310.626 125.324 311.206 125.904C311.796 126.474 312.091 127.309 312.091 128.409V132.984H311.026V128.514C311.026 127.694 310.821 127.069 310.411 126.639C310.001 126.209 309.416 125.994 308.656 125.994C307.806 125.994 307.131 126.249 306.631 126.759C306.141 127.259 305.896 127.954 305.896 128.844V132.984H304.831V125.094H305.851V126.549C306.141 126.069 306.541 125.699 307.051 125.439C307.571 125.169 308.171 125.034 308.851 125.034ZM322.316 125.094V132.024C322.316 133.364 321.986 134.354 321.326 134.994C320.676 135.644 319.691 135.969 318.371 135.969C317.641 135.969 316.946 135.859 316.286 135.639C315.636 135.429 315.106 135.134 314.696 134.754L315.236 133.944C315.616 134.284 316.076 134.549 316.616 134.739C317.166 134.929 317.741 135.024 318.341 135.024C319.341 135.024 320.076 134.789 320.546 134.319C321.016 133.859 321.251 133.139 321.251 132.159V131.154C320.921 131.654 320.486 132.034 319.946 132.294C319.416 132.554 318.826 132.684 318.176 132.684C317.436 132.684 316.761 132.524 316.151 132.204C315.551 131.874 315.076 131.419 314.726 130.839C314.386 130.249 314.216 129.584 314.216 128.844C314.216 128.104 314.386 127.444 314.726 126.864C315.076 126.284 315.551 125.834 316.151 125.514C316.751 125.194 317.426 125.034 318.176 125.034C318.846 125.034 319.451 125.169 319.991 125.439C320.531 125.709 320.966 126.099 321.296 126.609V125.094H322.316ZM318.281 131.739C318.851 131.739 319.366 131.619 319.826 131.379C320.286 131.129 320.641 130.784 320.891 130.344C321.151 129.904 321.281 129.404 321.281 128.844C321.281 128.284 321.151 127.789 320.891 127.359C320.641 126.919 320.286 126.579 319.826 126.339C319.376 126.089 318.861 125.964 318.281 125.964C317.711 125.964 317.196 126.084 316.736 126.324C316.286 126.564 315.931 126.904 315.671 127.344C315.421 127.784 315.296 128.284 315.296 128.844C315.296 129.404 315.421 129.904 315.671 130.344C315.931 130.784 316.286 131.129 316.736 131.379C317.196 131.619 317.711 131.739 318.281 131.739Z" fill="#1F213D"/>
<path opacity="0.35" d="M172.98 162.074C172.2 162.074 171.45 161.949 170.73 161.699C170.02 161.449 169.47 161.119 169.08 160.709L169.515 159.854C169.895 160.234 170.4 160.544 171.03 160.784C171.66 161.014 172.31 161.129 172.98 161.129C173.92 161.129 174.625 160.959 175.095 160.619C175.565 160.269 175.8 159.819 175.8 159.269C175.8 158.849 175.67 158.514 175.41 158.264C175.16 158.014 174.85 157.824 174.48 157.694C174.11 157.554 173.595 157.404 172.935 157.244C172.145 157.044 171.515 156.854 171.045 156.674C170.575 156.484 170.17 156.199 169.83 155.819C169.5 155.439 169.335 154.924 169.335 154.274C169.335 153.744 169.475 153.264 169.755 152.834C170.035 152.394 170.465 152.044 171.045 151.784C171.625 151.524 172.345 151.394 173.205 151.394C173.805 151.394 174.39 151.479 174.96 151.649C175.54 151.809 176.04 152.034 176.46 152.324L176.085 153.209C175.645 152.919 175.175 152.704 174.675 152.564C174.175 152.414 173.685 152.339 173.205 152.339C172.285 152.339 171.59 152.519 171.12 152.879C170.66 153.229 170.43 153.684 170.43 154.244C170.43 154.664 170.555 155.004 170.805 155.264C171.065 155.514 171.385 155.709 171.765 155.849C172.155 155.979 172.675 156.124 173.325 156.284C174.095 156.474 174.715 156.664 175.185 156.854C175.665 157.034 176.07 157.314 176.4 157.694C176.73 158.064 176.895 158.569 176.895 159.209C176.895 159.739 176.75 160.224 176.46 160.664C176.18 161.094 175.745 161.439 175.155 161.699C174.565 161.949 173.84 162.074 172.98 162.074ZM183.154 154.034C183.894 154.034 184.564 154.204 185.164 154.544C185.764 154.874 186.234 155.344 186.574 155.954C186.914 156.564 187.084 157.259 187.084 158.039C187.084 158.829 186.914 159.529 186.574 160.139C186.234 160.749 185.764 161.224 185.164 161.564C184.574 161.894 183.904 162.059 183.154 162.059C182.514 162.059 181.934 161.929 181.414 161.669C180.904 161.399 180.484 161.009 180.154 160.499V164.894H179.089V154.094H180.109V155.654C180.429 155.134 180.849 154.734 181.369 154.454C181.899 154.174 182.494 154.034 183.154 154.034ZM183.079 161.114C183.629 161.114 184.129 160.989 184.579 160.739C185.029 160.479 185.379 160.114 185.629 159.644C185.889 159.174 186.019 158.639 186.019 158.039C186.019 157.439 185.889 156.909 185.629 156.449C185.379 155.979 185.029 155.614 184.579 155.354C184.129 155.094 183.629 154.964 183.079 154.964C182.519 154.964 182.014 155.094 181.564 155.354C181.124 155.614 180.774 155.979 180.514 156.449C180.264 156.909 180.139 157.439 180.139 158.039C180.139 158.639 180.264 159.174 180.514 159.644C180.774 160.114 181.124 160.479 181.564 160.739C182.014 160.989 182.519 161.114 183.079 161.114ZM196.125 158.369H189.525C189.585 159.189 189.9 159.854 190.47 160.364C191.04 160.864 191.76 161.114 192.63 161.114C193.12 161.114 193.57 161.029 193.98 160.859C194.39 160.679 194.745 160.419 195.045 160.079L195.645 160.769C195.295 161.189 194.855 161.509 194.325 161.729C193.805 161.949 193.23 162.059 192.6 162.059C191.79 162.059 191.07 161.889 190.44 161.549C189.82 161.199 189.335 160.719 188.985 160.109C188.635 159.499 188.46 158.809 188.46 158.039C188.46 157.269 188.625 156.579 188.955 155.969C189.295 155.359 189.755 154.884 190.335 154.544C190.925 154.204 191.585 154.034 192.315 154.034C193.045 154.034 193.7 154.204 194.28 154.544C194.86 154.884 195.315 155.359 195.645 155.969C195.975 156.569 196.14 157.259 196.14 158.039L196.125 158.369ZM192.315 154.949C191.555 154.949 190.915 155.194 190.395 155.684C189.885 156.164 189.595 156.794 189.525 157.574H195.12C195.05 156.794 194.755 156.164 194.235 155.684C193.725 155.194 193.085 154.949 192.315 154.949ZM201.577 162.059C200.797 162.059 200.097 161.889 199.477 161.549C198.867 161.209 198.387 160.734 198.037 160.124C197.687 159.504 197.512 158.809 197.512 158.039C197.512 157.269 197.687 156.579 198.037 155.969C198.387 155.359 198.867 154.884 199.477 154.544C200.097 154.204 200.797 154.034 201.577 154.034C202.257 154.034 202.862 154.169 203.392 154.439C203.932 154.699 204.357 155.084 204.667 155.594L203.872 156.134C203.612 155.744 203.282 155.454 202.882 155.264C202.482 155.064 202.047 154.964 201.577 154.964C201.007 154.964 200.492 155.094 200.032 155.354C199.582 155.604 199.227 155.964 198.967 156.434C198.717 156.904 198.592 157.439 198.592 158.039C198.592 158.649 198.717 159.189 198.967 159.659C199.227 160.119 199.582 160.479 200.032 160.739C200.492 160.989 201.007 161.114 201.577 161.114C202.047 161.114 202.482 161.019 202.882 160.829C203.282 160.639 203.612 160.349 203.872 159.959L204.667 160.499C204.357 161.009 203.932 161.399 203.392 161.669C202.852 161.929 202.247 162.059 201.577 162.059ZM206.759 154.094H207.824V161.984H206.759V154.094ZM207.299 152.369C207.079 152.369 206.894 152.294 206.744 152.144C206.594 151.994 206.519 151.814 206.519 151.604C206.519 151.404 206.594 151.229 206.744 151.079C206.894 150.929 207.079 150.854 207.299 150.854C207.519 150.854 207.704 150.929 207.854 151.079C208.004 151.219 208.079 151.389 208.079 151.589C208.079 151.809 208.004 151.994 207.854 152.144C207.704 152.294 207.519 152.369 207.299 152.369ZM213.548 154.034C214.578 154.034 215.368 154.294 215.918 154.814C216.468 155.324 216.743 156.084 216.743 157.094V161.984H215.723V160.754C215.483 161.164 215.128 161.484 214.658 161.714C214.198 161.944 213.648 162.059 213.008 162.059C212.128 162.059 211.428 161.849 210.908 161.429C210.388 161.009 210.128 160.454 210.128 159.764C210.128 159.094 210.368 158.554 210.848 158.144C211.338 157.734 212.113 157.529 213.173 157.529H215.678V157.049C215.678 156.369 215.488 155.854 215.108 155.504C214.728 155.144 214.173 154.964 213.443 154.964C212.943 154.964 212.463 155.049 212.003 155.219C211.543 155.379 211.148 155.604 210.818 155.894L210.338 155.099C210.738 154.759 211.218 154.499 211.778 154.319C212.338 154.129 212.928 154.034 213.548 154.034ZM213.173 161.219C213.773 161.219 214.288 161.084 214.718 160.814C215.148 160.534 215.468 160.134 215.678 159.614V158.324H213.203C211.853 158.324 211.178 158.794 211.178 159.734C211.178 160.194 211.353 160.559 211.703 160.829C212.053 161.089 212.543 161.219 213.173 161.219ZM219.635 150.854H220.7V161.984H219.635V150.854ZM176.67 176.179H170.82L169.56 178.984H168.405L173.205 168.484H174.3L179.1 178.984H177.93L176.67 176.179ZM176.265 175.279L173.745 169.639L171.225 175.279H176.265ZM183.809 179.059C183.029 179.059 182.329 178.889 181.709 178.549C181.099 178.209 180.619 177.734 180.269 177.124C179.919 176.504 179.744 175.809 179.744 175.039C179.744 174.269 179.919 173.579 180.269 172.969C180.619 172.359 181.099 171.884 181.709 171.544C182.329 171.204 183.029 171.034 183.809 171.034C184.489 171.034 185.094 171.169 185.624 171.439C186.164 171.699 186.589 172.084 186.899 172.594L186.104 173.134C185.844 172.744 185.514 172.454 185.114 172.264C184.714 172.064 184.279 171.964 183.809 171.964C183.239 171.964 182.724 172.094 182.264 172.354C181.814 172.604 181.459 172.964 181.199 173.434C180.949 173.904 180.824 174.439 180.824 175.039C180.824 175.649 180.949 176.189 181.199 176.659C181.459 177.119 181.814 177.479 182.264 177.739C182.724 177.989 183.239 178.114 183.809 178.114C184.279 178.114 184.714 178.019 185.114 177.829C185.514 177.639 185.844 177.349 186.104 176.959L186.899 177.499C186.589 178.009 186.164 178.399 185.624 178.669C185.084 178.929 184.479 179.059 183.809 179.059ZM192.129 179.059C191.349 179.059 190.649 178.889 190.029 178.549C189.419 178.209 188.939 177.734 188.589 177.124C188.239 176.504 188.064 175.809 188.064 175.039C188.064 174.269 188.239 173.579 188.589 172.969C188.939 172.359 189.419 171.884 190.029 171.544C190.649 171.204 191.349 171.034 192.129 171.034C192.809 171.034 193.414 171.169 193.944 171.439C194.484 171.699 194.909 172.084 195.219 172.594L194.424 173.134C194.164 172.744 193.834 172.454 193.434 172.264C193.034 172.064 192.599 171.964 192.129 171.964C191.559 171.964 191.044 172.094 190.584 172.354C190.134 172.604 189.779 172.964 189.519 173.434C189.269 173.904 189.144 174.439 189.144 175.039C189.144 175.649 189.269 176.189 189.519 176.659C189.779 177.119 190.134 177.479 190.584 177.739C191.044 177.989 191.559 178.114 192.129 178.114C192.599 178.114 193.034 178.019 193.434 177.829C193.834 177.639 194.164 177.349 194.424 176.959L195.219 177.499C194.909 178.009 194.484 178.399 193.944 178.669C193.404 178.929 192.799 179.059 192.129 179.059ZM200.404 179.059C199.644 179.059 198.959 178.889 198.349 178.549C197.739 178.199 197.259 177.719 196.909 177.109C196.559 176.499 196.384 175.809 196.384 175.039C196.384 174.269 196.559 173.579 196.909 172.969C197.259 172.359 197.739 171.884 198.349 171.544C198.959 171.204 199.644 171.034 200.404 171.034C201.164 171.034 201.849 171.204 202.459 171.544C203.069 171.884 203.544 172.359 203.884 172.969C204.234 173.579 204.409 174.269 204.409 175.039C204.409 175.809 204.234 176.499 203.884 177.109C203.544 177.719 203.069 178.199 202.459 178.549C201.849 178.889 201.164 179.059 200.404 179.059ZM200.404 178.114C200.964 178.114 201.464 177.989 201.904 177.739C202.354 177.479 202.704 177.114 202.954 176.644C203.204 176.174 203.329 175.639 203.329 175.039C203.329 174.439 203.204 173.904 202.954 173.434C202.704 172.964 202.354 172.604 201.904 172.354C201.464 172.094 200.964 171.964 200.404 171.964C199.844 171.964 199.339 172.094 198.889 172.354C198.449 172.604 198.099 172.964 197.839 173.434C197.589 173.904 197.464 174.439 197.464 175.039C197.464 175.639 197.589 176.174 197.839 176.644C198.099 177.114 198.449 177.479 198.889 177.739C199.339 177.989 199.844 178.114 200.404 178.114ZM216.424 171.034C217.414 171.034 218.189 171.319 218.749 171.889C219.319 172.459 219.604 173.299 219.604 174.409V178.984H218.539V174.514C218.539 173.694 218.339 173.069 217.939 172.639C217.549 172.209 216.994 171.994 216.274 171.994C215.454 171.994 214.809 172.249 214.339 172.759C213.869 173.259 213.634 173.954 213.634 174.844V178.984H212.569V174.514C212.569 173.694 212.369 173.069 211.969 172.639C211.579 172.209 211.019 171.994 210.289 171.994C209.479 171.994 208.834 172.249 208.354 172.759C207.884 173.259 207.649 173.954 207.649 174.844V178.984H206.584V171.094H207.604V172.534C207.884 172.054 208.274 171.684 208.774 171.424C209.274 171.164 209.849 171.034 210.499 171.034C211.159 171.034 211.729 171.174 212.209 171.454C212.699 171.734 213.064 172.149 213.304 172.699C213.594 172.179 214.009 171.774 214.549 171.484C215.099 171.184 215.724 171.034 216.424 171.034ZM225.746 179.059C224.986 179.059 224.301 178.889 223.691 178.549C223.081 178.199 222.601 177.719 222.251 177.109C221.901 176.499 221.726 175.809 221.726 175.039C221.726 174.269 221.901 173.579 222.251 172.969C222.601 172.359 223.081 171.884 223.691 171.544C224.301 171.204 224.986 171.034 225.746 171.034C226.506 171.034 227.191 171.204 227.801 171.544C228.411 171.884 228.886 172.359 229.226 172.969C229.576 173.579 229.751 174.269 229.751 175.039C229.751 175.809 229.576 176.499 229.226 177.109C228.886 177.719 228.411 178.199 227.801 178.549C227.191 178.889 226.506 179.059 225.746 179.059ZM225.746 178.114C226.306 178.114 226.806 177.989 227.246 177.739C227.696 177.479 228.046 177.114 228.296 176.644C228.546 176.174 228.671 175.639 228.671 175.039C228.671 174.439 228.546 173.904 228.296 173.434C228.046 172.964 227.696 172.604 227.246 172.354C226.806 172.094 226.306 171.964 225.746 171.964C225.186 171.964 224.681 172.094 224.231 172.354C223.791 172.604 223.441 172.964 223.181 173.434C222.931 173.904 222.806 174.439 222.806 175.039C222.806 175.639 222.931 176.174 223.181 176.644C223.441 177.114 223.791 177.479 224.231 177.739C224.681 177.989 225.186 178.114 225.746 178.114ZM239.125 167.854V178.984H238.105V177.424C237.785 177.954 237.36 178.359 236.83 178.639C236.31 178.919 235.72 179.059 235.06 179.059C234.32 179.059 233.65 178.889 233.05 178.549C232.45 178.209 231.98 177.734 231.64 177.124C231.3 176.514 231.13 175.819 231.13 175.039C231.13 174.259 231.3 173.564 231.64 172.954C231.98 172.344 232.45 171.874 233.05 171.544C233.65 171.204 234.32 171.034 235.06 171.034C235.7 171.034 236.275 171.169 236.785 171.439C237.305 171.699 237.73 172.084 238.06 172.594V167.854H239.125ZM235.15 178.114C235.7 178.114 236.195 177.989 236.635 177.739C237.085 177.479 237.435 177.114 237.685 176.644C237.945 176.174 238.075 175.639 238.075 175.039C238.075 174.439 237.945 173.904 237.685 173.434C237.435 172.964 237.085 172.604 236.635 172.354C236.195 172.094 235.7 171.964 235.15 171.964C234.59 171.964 234.085 172.094 233.635 172.354C233.195 172.604 232.845 172.964 232.585 173.434C232.335 173.904 232.21 174.439 232.21 175.039C232.21 175.639 232.335 176.174 232.585 176.644C232.845 177.114 233.195 177.479 233.635 177.739C234.085 177.989 234.59 178.114 235.15 178.114ZM244.851 171.034C245.881 171.034 246.671 171.294 247.221 171.814C247.771 172.324 248.046 173.084 248.046 174.094V178.984H247.026V177.754C246.786 178.164 246.431 178.484 245.961 178.714C245.501 178.944 244.951 179.059 244.311 179.059C243.431 179.059 242.731 178.849 242.211 178.429C241.691 178.009 241.431 177.454 241.431 176.764C241.431 176.094 241.671 175.554 242.151 175.144C242.641 174.734 243.416 174.529 244.476 174.529H246.981V174.049C246.981 173.369 246.791 172.854 246.411 172.504C246.031 172.144 245.476 171.964 244.746 171.964C244.246 171.964 243.766 172.049 243.306 172.219C242.846 172.379 242.451 172.604 242.121 172.894L241.641 172.099C242.041 171.759 242.521 171.499 243.081 171.319C243.641 171.129 244.231 171.034 244.851 171.034ZM244.476 178.219C245.076 178.219 245.591 178.084 246.021 177.814C246.451 177.534 246.771 177.134 246.981 176.614V175.324H244.506C243.156 175.324 242.481 175.794 242.481 176.734C242.481 177.194 242.656 177.559 243.006 177.829C243.356 178.089 243.846 178.219 244.476 178.219ZM255.094 178.504C254.894 178.684 254.644 178.824 254.344 178.924C254.054 179.014 253.749 179.059 253.429 179.059C252.689 179.059 252.119 178.859 251.719 178.459C251.319 178.059 251.119 177.494 251.119 176.764V171.994H249.709V171.094H251.119V169.369H252.184V171.094H254.584V171.994H252.184V176.704C252.184 177.174 252.299 177.534 252.529 177.784C252.769 178.024 253.109 178.144 253.549 178.144C253.769 178.144 253.979 178.109 254.179 178.039C254.389 177.969 254.569 177.869 254.719 177.739L255.094 178.504ZM257.033 171.094H258.098V178.984H257.033V171.094ZM257.573 169.369C257.353 169.369 257.168 169.294 257.018 169.144C256.868 168.994 256.793 168.814 256.793 168.604C256.793 168.404 256.868 168.229 257.018 168.079C257.168 167.929 257.353 167.854 257.573 167.854C257.793 167.854 257.978 167.929 258.128 168.079C258.278 168.219 258.353 168.389 258.353 168.589C258.353 168.809 258.278 168.994 258.128 169.144C257.978 169.294 257.793 169.369 257.573 169.369ZM264.286 179.059C263.526 179.059 262.841 178.889 262.231 178.549C261.621 178.199 261.141 177.719 260.791 177.109C260.441 176.499 260.266 175.809 260.266 175.039C260.266 174.269 260.441 173.579 260.791 172.969C261.141 172.359 261.621 171.884 262.231 171.544C262.841 171.204 263.526 171.034 264.286 171.034C265.046 171.034 265.731 171.204 266.341 171.544C266.951 171.884 267.426 172.359 267.766 172.969C268.116 173.579 268.291 174.269 268.291 175.039C268.291 175.809 268.116 176.499 267.766 177.109C267.426 177.719 266.951 178.199 266.341 178.549C265.731 178.889 265.046 179.059 264.286 179.059ZM264.286 178.114C264.846 178.114 265.346 177.989 265.786 177.739C266.236 177.479 266.586 177.114 266.836 176.644C267.086 176.174 267.211 175.639 267.211 175.039C267.211 174.439 267.086 173.904 266.836 173.434C266.586 172.964 266.236 172.604 265.786 172.354C265.346 172.094 264.846 171.964 264.286 171.964C263.726 171.964 263.221 172.094 262.771 172.354C262.331 172.604 261.981 172.964 261.721 173.434C261.471 173.904 261.346 174.439 261.346 175.039C261.346 175.639 261.471 176.174 261.721 176.644C261.981 177.114 262.331 177.479 262.771 177.739C263.221 177.989 263.726 178.114 264.286 178.114ZM274.485 171.034C275.475 171.034 276.26 171.324 276.84 171.904C277.43 172.474 277.725 173.309 277.725 174.409V178.984H276.66V174.514C276.66 173.694 276.455 173.069 276.045 172.639C275.635 172.209 275.05 171.994 274.29 171.994C273.44 171.994 272.765 172.249 272.265 172.759C271.775 173.259 271.53 173.954 271.53 174.844V178.984H270.465V171.094H271.485V172.549C271.775 172.069 272.175 171.699 272.685 171.439C273.205 171.169 273.805 171.034 274.485 171.034Z" fill="#1F213D"/>
<path d="M79.375 107.016H131.625" stroke="#1F213D" stroke-width="2" stroke-dasharray="1 6"/>
<circle cx="150.625" cy="73.9844" r="7" fill="#7DCE88"/>
<circle opacity="0.5" cx="150.625" cy="36.9844" r="6" stroke="#1F213D" stroke-width="2"/>
<circle opacity="0.7" cx="150.625" cy="119.984" r="6" stroke="#1F213D" stroke-width="2"/>
<circle opacity="0.3" cx="150.625" cy="164.984" r="6" stroke="#1F213D" stroke-width="2"/>
<defs>
<linearGradient id="paint0_linear_452_36368" x1="130.625" y1="27.0156" x2="130.625" y2="187.016" gradientUnits="userSpaceOnUse">
<stop offset="0.00190762" stop-color="#1F213D" stop-opacity="0"/>
<stop offset="0.526042" stop-color="#1F213D"/>
<stop offset="1" stop-color="#1F213D" stop-opacity="0"/>
</linearGradient>
</defs>
</svg>
