<svg width="51" height="35" viewBox="0 0 51 35" fill="none" xmlns="http://www.w3.org/2000/svg">
<g clip-path="url(#clip0_934_17921)">
<path fill-rule="evenodd" clip-rule="evenodd" d="M33.2299 34.714L33.2219 34.714L33.2218 34.7094L33.2299 34.714ZM36.2997 34.7052L39.3655 34.6964L39.3695 34.6964L33.2117 31.1647L33.2168 32.937L36.2997 34.7052ZM33.2066 29.3923L33.2015 27.62L40.8794 32.0235L40.8743 30.2512L33.1964 25.8477L33.1913 24.0753L40.8692 28.4788L40.8642 26.7065L33.1862 22.303L33.1812 20.5306L40.8591 24.9341L40.8544 23.2957L33.1765 18.9006L29.4423 21.0513L29.4397 20.1542L21.6376 15.6794L21.6325 13.9071L29.4346 18.3819L29.4295 16.6095L21.6274 12.1348L21.6223 10.3624L29.4244 14.8372L29.4194 13.0935L21.6173 8.63712L21.6174 8.67738L13.9852 13.1233L14.0473 34.769L10.7482 34.7785L10.7482 34.7782C4.88048 34.7516 0.123444 29.9673 0.106478 24.055C0.0932396 19.4417 2.96997 15.4986 7.0223 13.96C8.67356 6.28307 15.4993 0.518134 23.6855 0.494642C31.644 0.471804 38.3478 5.88261 40.2724 13.2286C45.769 13.7017 50.0902 18.2982 50.1063 23.9115C50.1218 29.3351 46.1131 33.8325 40.8868 34.5855L40.8845 33.7958L33.2066 29.3923ZM21.6426 17.4518L21.6477 19.2241L27.1425 22.3756L25.6025 23.2617L21.6528 20.9965L21.6579 22.7688L25.559 25.0062L25.554 23.2908L28.6821 21.4891L21.6426 17.4518ZM25.5641 26.7785L21.663 24.5411L21.6681 26.3135L25.5691 28.5509L25.5641 26.7785ZM25.5742 30.3232L21.6732 28.0858L21.6782 29.8582L25.5793 32.0956L25.5742 30.3232ZM25.5844 33.8679L21.6833 31.6305L21.6884 33.4028L24.0206 34.7404L25.5869 34.7359L25.5844 33.8679Z" fill="#41457E"/>
</g>
<defs>
<clipPath id="clip0_934_17921">
<rect width="50" height="34.2466" fill="white" transform="translate(0.0078125 0.5625) rotate(-0.16442)"/>
</clipPath>
</defs>
</svg>
