<svg width="14" height="23" viewBox="0 0 14 23" fill="none" xmlns="http://www.w3.org/2000/svg">
<g clip-path="url(#clip0_452_36763)">
<path d="M8.24514 0.949219H1.23677C0.556547 0.949219 0 1.61484 0 2.42839V21.1645C0 21.978 0.556547 22.6437 1.23677 22.6437H11.9554C12.6357 22.6437 13.1922 21.978 13.1922 21.1645V6.86589L8.24514 0.949219Z" fill="#673AB7"/>
<path d="M8.24514 0.949219H1.23677C0.556547 0.949219 0 1.61484 0 2.42839V21.1645C0 21.978 0.556547 22.6437 1.23677 22.6437H11.9554C12.6357 22.6437 13.1922 21.978 13.1922 21.1645V6.86589L10.3064 4.40061L8.24514 0.949219Z" fill="#673AB7"/>
<path d="M8.24514 0.949219H1.23677C0.556547 0.949219 0 1.61484 0 2.42839V21.1645C0 21.978 0.556547 22.6437 1.23677 22.6437H11.9554C12.6357 22.6437 13.1922 21.978 13.1922 21.1645V6.86589L8.24514 0.949219Z" fill="url(#paint0_linear_452_36763)"/>
<path d="M8.60742 6.43359L13.1927 11.9164V6.86625L8.60742 6.43359Z" fill="url(#paint1_linear_452_36763)"/>
<path d="M8.24414 0.949219V5.38672C8.24414 6.20396 8.7976 6.86589 9.48091 6.86589H13.1912L8.24414 0.949219Z" fill="#B39DDB"/>
<path d="M8.24514 0.949219H1.23677C0.556547 0.949219 0 1.61484 0 2.42839V21.1645C0 21.978 0.556547 22.6437 1.23677 22.6437H11.9554C12.6357 22.6437 13.1922 21.978 13.1922 21.1645V6.86589L8.24514 0.949219Z" fill="#311B92" fill-opacity="0.2"/>
<path d="M11.9554 22.5221H1.23677C0.556547 22.5221 0 21.8565 0 21.043V21.1662C0 21.9798 0.556547 22.6454 1.23677 22.6454H11.9554C12.6357 22.6454 13.1922 21.9798 13.1922 21.1662V21.043C13.1922 21.8565 12.6357 22.5221 11.9554 22.5221Z" fill="#311B92" fill-opacity="0.2"/>
<path d="M8.24514 0.949219H1.23677C0.556547 0.949219 0 1.61484 0 2.42839V21.1645C0 21.978 0.556547 22.6437 1.23677 22.6437H11.9554C12.6357 22.6437 13.1922 21.978 13.1922 21.1645V6.86589L8.24514 0.949219Z" fill="#311B92" fill-opacity="0.1"/>
<path d="M9.48286 6.86589C8.79955 6.86589 8.24609 6.20396 8.24609 5.38672V5.50998C8.24609 6.32722 8.79955 6.98915 9.48286 6.98915H13.1932V6.86589H9.48286Z" fill="#311B92" fill-opacity="0.1"/>
<mask id="mask0_452_36763" style="mask-type:luminance" maskUnits="userSpaceOnUse" x="0" y="0" width="14" height="23">
<path d="M8.24514 0.949219H1.23677C0.556547 0.949219 0 1.61484 0 2.42839V21.1645C0 21.978 0.556547 22.6437 1.23677 22.6437H11.9554C12.6357 22.6437 13.1922 21.978 13.1922 21.1645V6.86589L8.24514 0.949219Z" fill="#F1F1F1"/>
</mask>
<g mask="url(#mask0_452_36763)">
<path d="M5.35921 17.7101H9.89404V16.724H5.35921V17.7101ZM5.35921 11.7934V12.7795H9.89404V11.7934H5.35921ZM4.32857 12.2865C4.32857 12.6945 4.05132 13.026 3.71018 13.026C3.36904 13.026 3.0918 12.6945 3.0918 12.2865C3.0918 11.8785 3.36904 11.5469 3.71018 11.5469C4.05132 11.5469 4.32857 11.8785 4.32857 12.2865ZM4.32857 14.7517C4.32857 15.1597 4.05132 15.4913 3.71018 15.4913C3.36904 15.4913 3.0918 15.1597 3.0918 14.7517C3.0918 14.3437 3.36904 14.0122 3.71018 14.0122C4.05132 14.0122 4.32857 14.3437 4.32857 14.7517ZM4.32857 17.217C4.32857 17.625 4.05132 17.9566 3.71018 17.9566C3.36904 17.9566 3.0918 17.625 3.0918 17.217C3.0918 16.809 3.36904 16.4774 3.71018 16.4774C4.05132 16.4774 4.32857 16.809 4.32857 17.217ZM5.35921 15.2448H9.89404V14.2587H5.35921V15.2448Z" fill="white"/>
</g>
<path d="M8.24514 0.949219H1.23677C0.556547 0.949219 0 1.61484 0 2.42839V21.1645C0 21.978 0.556547 22.6437 1.23677 22.6437H11.9554C12.6357 22.6437 13.1922 21.978 13.1922 21.1645V6.86589L8.24514 0.949219Z" fill="url(#paint2_radial_452_36763)"/>
</g>
<defs>
<linearGradient id="paint0_linear_452_36763" x1="6.59682" y1="2.81198" x2="6.59682" y2="22.6467" gradientUnits="userSpaceOnUse">
<stop stop-color="#311B92" stop-opacity="0.2"/>
<stop offset="1" stop-color="#311B92" stop-opacity="0.02"/>
</linearGradient>
<linearGradient id="paint1_linear_452_36763" x1="10.9003" y1="6.90436" x2="10.9003" y2="11.9171" gradientUnits="userSpaceOnUse">
<stop stop-color="#311B92" stop-opacity="0.2"/>
<stop offset="1" stop-color="#311B92" stop-opacity="0.02"/>
</linearGradient>
<radialGradient id="paint2_radial_452_36763" cx="0" cy="0" r="1" gradientUnits="userSpaceOnUse" gradientTransform="translate(0.417936 1.38044) scale(21.2723 25.4414)">
<stop stop-color="white" stop-opacity="0.1"/>
<stop offset="1" stop-color="white" stop-opacity="0"/>
</radialGradient>
<clipPath id="clip0_452_36763">
<rect width="13.378" height="22" fill="white" transform="translate(0 0.949219)"/>
</clipPath>
</defs>
</svg>
