<svg width="59" height="40" viewBox="0 0 59 40" fill="none" xmlns="http://www.w3.org/2000/svg">
<g clip-path="url(#clip0_971_39385)">
<ellipse cx="45.8187" cy="27.4395" rx="12.5814" ry="12.5606" fill="url(#paint0_linear_971_39385)"/>
<ellipse cx="27.6191" cy="19.9319" rx="19.9648" ry="19.9319" fill="url(#paint1_linear_971_39385)"/>
<ellipse cx="27.6191" cy="19.9319" rx="19.9648" ry="19.9319" fill="url(#paint2_radial_971_39385)"/>
<ellipse cx="27.6191" cy="19.9319" rx="19.9648" ry="19.9319" fill="url(#paint3_radial_971_39385)"/>
<ellipse cx="27.6191" cy="19.9319" rx="19.9648" ry="19.9319" fill="url(#paint4_radial_971_39385)"/>
<ellipse cx="12.4875" cy="27.4395" rx="12.4875" ry="12.5606" fill="url(#paint5_linear_971_39385)"/>
<g opacity="0.75">
<path d="M54.4568 29.5431C54.4568 37.4648 49.8687 39.8122 44.2091 39.8122C38.5494 39.8122 29.2002 36.094 29.2002 30.4225C29.2002 24.7511 33.2907 17.6526 38.9504 17.6526C44.61 17.6526 54.4568 23.8717 54.4568 29.5431Z" fill="url(#paint6_radial_971_39385)"/>
<path d="M47.4148 27.2897C47.4148 35.2114 42.8267 37.5588 37.1671 37.5588C31.5074 37.5588 22.1582 33.8406 22.1582 28.1691C22.1582 22.4977 26.2487 15.3992 31.9084 15.3992C37.568 15.3992 47.4148 21.6182 47.4148 27.2897Z" fill="url(#paint7_radial_971_39385)"/>
<path d="M29.3889 5.36818C36.024 9.6952 35.484 14.8208 32.3926 19.5619C29.3011 24.3029 21.08 30.1037 16.3297 27.0058C11.5794 23.9079 7.86812 16.6039 10.9596 11.8629C14.051 7.12183 24.6386 2.27028 29.3889 5.36818Z" fill="url(#paint8_radial_971_39385)"/>
<path d="M55.114 34.0502C55.114 41.9719 50.5259 44.3193 44.8663 44.3193C39.2066 44.3193 29.8574 40.6011 29.8574 34.9296C29.8574 29.2582 33.9479 22.1597 39.6076 22.1597C45.2672 22.1597 55.114 28.3787 55.114 34.0502Z" fill="url(#paint9_radial_971_39385)"/>
</g>
<rect x="12.3936" y="38.6855" width="5.82122" height="1.31455" fill="#4251C1"/>
<path fill-rule="evenodd" clip-rule="evenodd" d="M16.2471 14.7177L25.1765 9.55054V40.0001H16.2471L16.2471 14.7177ZM29.7254 26.6321L38.6431 21.5299V40.0001H29.7254V26.6321Z" fill="white"/>
<path fill-rule="evenodd" clip-rule="evenodd" d="M38.6424 40H45.8182H46.1937V39.9945C46.668 39.9806 47.1357 39.9405 47.5954 39.8756V26.6891L38.6424 21.5299V40ZM29.7247 40V26.6307L34.2737 24.0304V14.7346L25.1758 9.50342V40H29.7247Z" fill="url(#paint10_radial_971_39385)"/>
</g>
<defs>
<linearGradient id="paint0_linear_971_39385" x1="50.4193" y1="17.9344" x2="39.433" y2="38.3094" gradientUnits="userSpaceOnUse">
<stop stop-color="#EB8655"/>
<stop offset="0.554241" stop-color="#CD3489"/>
<stop offset="1" stop-color="#4251C1"/>
</linearGradient>
<linearGradient id="paint1_linear_971_39385" x1="27.6038" y1="9.85291e-08" x2="26.6647" y2="15.0235" gradientUnits="userSpaceOnUse">
<stop stop-color="#FCA442"/>
<stop offset="1" stop-color="#CB308B"/>
</linearGradient>
<radialGradient id="paint2_radial_971_39385" cx="0" cy="0" r="1" gradientUnits="userSpaceOnUse" gradientTransform="translate(43.8468 4.97653) rotate(149.684) scale(19.9038 38.517)">
<stop stop-color="#FCA442"/>
<stop offset="1" stop-color="#CB308B" stop-opacity="0"/>
</radialGradient>
<radialGradient id="paint3_radial_971_39385" cx="0" cy="0" r="1" gradientUnits="userSpaceOnUse" gradientTransform="translate(34.3639 20.8451) rotate(-29.1692) scale(9.2473 9.54631)">
<stop stop-color="#C3378E"/>
<stop offset="1" stop-color="#F08556" stop-opacity="0"/>
</radialGradient>
<radialGradient id="paint4_radial_971_39385" cx="0" cy="0" r="1" gradientUnits="userSpaceOnUse" gradientTransform="translate(53.7993 5.25821) rotate(130.511) scale(26.306 24.3979)">
<stop stop-color="#FCA442"/>
<stop offset="1" stop-color="#FA9E47" stop-opacity="0"/>
</radialGradient>
<linearGradient id="paint5_linear_971_39385" x1="5.63344" y1="14.8358" x2="12.4883" y2="39.9999" gradientUnits="userSpaceOnUse">
<stop stop-color="#D72C85"/>
<stop offset="1" stop-color="#3B52C4"/>
</linearGradient>
<radialGradient id="paint6_radial_971_39385" cx="0" cy="0" r="1" gradientUnits="userSpaceOnUse" gradientTransform="translate(41.8754 28.7324) rotate(101.126) scale(14.4593 19.3147)">
<stop stop-color="#6242AB"/>
<stop offset="0.626963" stop-color="#9F3E9C" stop-opacity="0"/>
</radialGradient>
<radialGradient id="paint7_radial_971_39385" cx="0" cy="0" r="1" gradientUnits="userSpaceOnUse" gradientTransform="translate(34.8334 26.479) rotate(101.126) scale(14.4593 19.3147)">
<stop stop-color="#6242AB"/>
<stop offset="0.626963" stop-color="#9F3E9C" stop-opacity="0"/>
</radialGradient>
<radialGradient id="paint8_radial_971_39385" cx="0" cy="0" r="1" gradientUnits="userSpaceOnUse" gradientTransform="translate(22.5341 15.5869) rotate(53.4907) scale(8.99528 12.0163)">
<stop stop-color="#DC2C89"/>
<stop offset="1" stop-color="#DF3283" stop-opacity="0"/>
</radialGradient>
<radialGradient id="paint9_radial_971_39385" cx="0" cy="0" r="1" gradientUnits="userSpaceOnUse" gradientTransform="translate(42.5327 33.2395) rotate(101.126) scale(14.4593 19.3147)">
<stop stop-color="#6242AB"/>
<stop offset="0.626963" stop-color="#9F3E9C" stop-opacity="0"/>
</radialGradient>
<radialGradient id="paint10_radial_971_39385" cx="0" cy="0" r="1" gradientUnits="userSpaceOnUse" gradientTransform="translate(25.1263 4.69277) rotate(70.1613) scale(41.328 209.321)">
<stop stop-color="#ABFFCD" stop-opacity="0.76"/>
<stop offset="0.318846" stop-color="#A0EEF7" stop-opacity="0.824768"/>
<stop offset="1" stop-color="#531C9A"/>
</radialGradient>
<clipPath id="clip0_971_39385">
<rect width="58.4" height="40" fill="white"/>
</clipPath>
</defs>
</svg>
