<svg width="51" height="50" viewBox="0 0 51 50" fill="none" xmlns="http://www.w3.org/2000/svg">
<rect x="1.33398" y="1" width="48" height="48" rx="17" stroke="#4A6BE2" stroke-width="2"/>
<path d="M28.334 27.6641V28.6641C28.334 29.2163 27.8863 29.6641 27.334 29.6641H23.334C22.7817 29.6641 22.334 29.2163 22.334 28.6641V27.6641" stroke="#4A6BE2" stroke-width="1.5" stroke-linecap="round" stroke-linejoin="round"/>
<path fill-rule="evenodd" clip-rule="evenodd" d="M16.334 25.8382V31.6641C16.334 32.7686 17.2294 33.6641 18.334 33.6641H32.334C33.4386 33.6641 34.334 32.7686 34.334 31.6641V25.8382C34.334 25.0596 34.2203 24.2852 33.9966 23.5394L32.0616 17.0894C31.8078 16.2434 31.0291 15.6641 30.1459 15.6641H20.522C19.6388 15.6641 18.8602 16.2434 18.6064 17.0894L16.6714 23.5394C16.4477 24.2852 16.334 25.0596 16.334 25.8382Z" stroke="#4A6BE2" stroke-width="1.5" stroke-linecap="round" stroke-linejoin="round"/>
<path d="M34.2472 24.6641H16.4219" stroke="#4A6BE2" stroke-width="1.5" stroke-linecap="round" stroke-linejoin="round"/>
<path d="M28.834 18.6641H21.834" stroke="#4A6BE2" stroke-width="1.5" stroke-linecap="round" stroke-linejoin="round"/>
<path d="M29.834 21.6641H20.834" stroke="#4A6BE2" stroke-width="1.5" stroke-linecap="round" stroke-linejoin="round"/>
</svg>
